<?xml version="1.0" encoding="utf-8"?>
<svg height="309" preserveAspectRatio="xMidYMid" viewBox="0 0 512 309" width="512" xmlns="http://www.w3.org/2000/svg">
  <path d="M 120.81 80.561 L 173.621 80.561 L 217.378 80.561 L 217.378 88.237 L 129.662 88.237 L 129.662 146.004 L 212.148 146.004 L 212.148 153.679 L 129.662 153.679 L 129.662 217.102 L 218.384 217.102 L 218.384 224.777 L 120.81 224.777 L 120.81 80.561 Z M 226.029 80.561 L 236.29 80.561 L 281.757 143.984 L 328.23 80.561 L 391.441 0 L 287.591 150.649 L 341.106 224.777 L 330.443 224.777 L 281.757 157.315 L 232.869 224.777 L 222.408 224.777 L 276.325 150.649 L 226.029 80.561 Z M 344.928 88.237 L 344.928 80.561 L 454.976 80.561 L 454.976 88.237 L 404.277 88.237 L 404.277 224.777 L 395.425 224.777 L 395.425 88.237 L 344.928 88.237 Z M 0 80.561 L 11.065 80.561 L 163.646 308.884 L 100.592 224.777 L 9.254 91.468 L 8.852 224.777 L 0 224.777 L 0 80.561 Z M 454.084 214.785 C 452.275 214.785 450.919 213.384 450.919 211.573 C 450.919 209.762 452.275 208.361 454.084 208.361 C 455.914 208.361 457.249 209.762 457.249 211.573 C 457.249 213.384 455.914 214.785 454.084 214.785 Z M 462.782 206.335 L 467.519 206.335 C 467.583 208.9 469.456 210.625 472.212 210.625 C 475.291 210.625 477.035 208.771 477.035 205.3 L 477.035 183.31 L 481.858 183.31 L 481.858 205.321 C 481.858 211.573 478.241 215.174 472.255 215.174 C 466.636 215.174 462.782 211.681 462.782 206.335 L 462.782 206.335 Z M 488.166 206.054 L 492.946 206.054 C 493.355 209.008 496.24 210.883 500.395 210.883 C 504.271 210.883 507.113 208.878 507.113 206.119 C 507.113 203.748 505.304 202.325 501.192 201.355 L 497.187 200.385 C 491.568 199.069 489.006 196.353 489.006 191.783 C 489.006 186.242 493.527 182.556 500.309 182.556 C 506.617 182.556 511.225 186.242 511.505 191.481 L 506.811 191.481 C 506.359 188.614 503.862 186.824 500.244 186.824 C 496.434 186.824 493.893 188.657 493.893 191.459 C 493.893 193.68 495.529 194.952 499.577 195.9 L 503 196.741 C 509.373 198.229 512 200.816 512 205.494 C 512 211.444 507.393 215.174 500.029 215.174 C 493.14 215.174 488.511 211.616 488.166 206.054 L 488.166 206.054 Z" style="fill: rgb(255, 255, 255);"/>
</svg>